HIERARCHY
ROOT Hips
{
  OFFSET -15.762 28.048 -247.753
  CHANNELS 6 Xposition Yposition Zposition Zrotation Xrotation Yrotation
  JOINT LeftUpLeg
  {
    OFFSET 8.308 -7.944 2.169
    CHANNELS 6 Xposition Yposition Zposition Zrotation Xrotation Yrotation
    JOINT LeftLeg
    {
      OFFSET -0.000 -49.741 0.000
      CHANNELS 6 Xposition Yposition Zposition Zrotation Xrotation Yrotation
      JOINT LeftFoot
      {
        OFFSET 0.000 -43.515 -0.000
        CHANNELS 6 Xposition Yposition Zposition Zrotation Xrotation Yrotation
        End Site
        {
          OFFSET 0.000 -7.819 4.514
        }
      }
    }
  }
  JOINT RightUpLeg
  {
    OFFSET -8.198 -7.693 2.303
    CHANNELS 6 Xposition Yposition Zposition Zrotation Xrotation Yrotation
    JOINT RightLeg
    {
      OFFSET -0.000 -49.902 0.000
      CHANNELS 6 Xposition Yposition Zposition Zrotation Xrotation Yrotation
      JOINT RightFoot
      {
        OFFSET 0.000 -41.977 -0.000
        CHANNELS 6 Xposition Yposition Zposition Zrotation Xrotation Yrotation
        End Site
        {
          OFFSET 0.000 -8.361 4.827
        }
      }
    }
  }
  JOINT Spine
  {
    OFFSET 0.000 6.022 -6.022
    CHANNELS 6 Xposition Yposition Zposition Zrotation Xrotation Yrotation
    JOINT LeftShoulder
    {
      OFFSET -0.000 32.599 0.000
      CHANNELS 6 Xposition Yposition Zposition Zrotation Xrotation Yrotation
      JOINT LeftArm
      {
        OFFSET 19.704 0.000 -0.000
        CHANNELS 6 Xposition Yposition Zposition Zrotation Xrotation Yrotation
        JOINT LeftForeArm
        {
          OFFSET 26.382 0.000 0.000
          CHANNELS 6 Xposition Yposition Zposition Zrotation Xrotation Yrotation
          JOINT LeftHand
          {
            OFFSET 25.473 0.000 -0.000
            CHANNELS 6 Xposition Yposition Zposition Zrotation Xrotation Yrotation
            JOINT LeftHandThumb1
            {
            OFFSET 4.970 -0.620 3.390
            CHANNELS 6 Xposition Yposition Zposition Zrotation Xrotation Yrotation
              JOINT LeftHandThumb2
              {
              OFFSET 2.150 -0.000 0.000
              CHANNELS 6 Xposition Yposition Zposition Zrotation Xrotation Yrotation
                JOINT LeftHandThumb3
                {
                OFFSET 2.200 -0.000 0.000
                CHANNELS 6 Xposition Yposition Zposition Zrotation Xrotation Yrotation
                  JOINT LeftHandThumb4
                  {
                  OFFSET 1.700 -0.000 0.000
                  CHANNELS 6 Xposition Yposition Zposition Zrotation Xrotation Yrotation
                  }
                }
              }
            }
            JOINT LeftHandIndex1
            {
            OFFSET 8.730 0.680 2.070
            CHANNELS 6 Xposition Yposition Zposition Zrotation Xrotation Yrotation
              JOINT LeftHandIndex2
              {
              OFFSET 2.670 -0.000 0.000
              CHANNELS 6 Xposition Yposition Zposition Zrotation Xrotation Yrotation
                JOINT LeftHandIndex3
                {
                OFFSET 2.130 -0.000 0.000
                CHANNELS 6 Xposition Yposition Zposition Zrotation Xrotation Yrotation
                  JOINT LeftHandIndex4
                  {
                  OFFSET 1.800 -0.000 0.000
                  CHANNELS 6 Xposition Yposition Zposition Zrotation Xrotation Yrotation
                  }
                }
              }
            }
            JOINT LeftHandMiddle1
            {
            OFFSET 9.220 0.670 0.550
            CHANNELS 6 Xposition Yposition Zposition Zrotation Xrotation Yrotation
              JOINT LeftHandMiddle2
              {
              OFFSET 2.660 -0.000 0.000
              CHANNELS 6 Xposition Yposition Zposition Zrotation Xrotation Yrotation
                JOINT LeftHandMiddle3
                {
                OFFSET 2.280 -0.000 0.000
                CHANNELS 6 Xposition Yposition Zposition Zrotation Xrotation Yrotation
                  JOINT LeftHandMiddle4
                  {
                  OFFSET 1.500 -0.000 0.000
                  CHANNELS 6 Xposition Yposition Zposition Zrotation Xrotation Yrotation
                  }
                }
              }
            }
            JOINT LeftHandRing1
            {
            OFFSET 9.250 0.670 -1.130
            CHANNELS 6 Xposition Yposition Zposition Zrotation Xrotation Yrotation
              JOINT LeftHandRing2
              {
              OFFSET 2.470 -0.000 0.000
              CHANNELS 6 Xposition Yposition Zposition Zrotation Xrotation Yrotation
                JOINT LeftHandRing3
                {
                OFFSET 2.210 -0.000 0.000
                CHANNELS 6 Xposition Yposition Zposition Zrotation Xrotation Yrotation
                  JOINT LeftHandRing4
                  {
                  OFFSET 1.800 -0.000 0.000
                  CHANNELS 6 Xposition Yposition Zposition Zrotation Xrotation Yrotation
                  }
                }
              }
            }
            JOINT LeftHandPinky1
            {
            OFFSET 9.350 0.660 -2.720
            CHANNELS 6 Xposition Yposition Zposition Zrotation Xrotation Yrotation
              JOINT LeftHandPinky2
              {
              OFFSET 1.630 -0.000 0.000
              CHANNELS 6 Xposition Yposition Zposition Zrotation Xrotation Yrotation
                JOINT LeftHandPinky3
                {
                OFFSET 1.710 -0.000 0.000
                CHANNELS 6 Xposition Yposition Zposition Zrotation Xrotation Yrotation
                  JOINT LeftHandPinky4
                  {
                  OFFSET 1.800 -0.000 0.000
                  CHANNELS 6 Xposition Yposition Zposition Zrotation Xrotation Yrotation
                  }
                }
              }
            }
          }
        }
      }
    }
    JOINT RightShoulder
    {
      OFFSET -0.000 32.599 0.000
      CHANNELS 6 Xposition Yposition Zposition Zrotation Xrotation Yrotation
      JOINT RightArm
      {
        OFFSET -18.001 0.000 -0.000
        CHANNELS 6 Xposition Yposition Zposition Zrotation Xrotation Yrotation
        JOINT RightForeArm
        {
          OFFSET -27.986 0.000 0.000
          CHANNELS 6 Xposition Yposition Zposition Zrotation Xrotation Yrotation
          JOINT RightHand
          {
            OFFSET -25.867 0.000 -0.000
            CHANNELS 6 Xposition Yposition Zposition Zrotation Xrotation Yrotation
            JOINT RightHandThumb1
            {
            OFFSET -4.970 -0.620 3.390
            CHANNELS 6 Xposition Yposition Zposition Zrotation Xrotation Yrotation
              JOINT RightHandThumb2
              {
              OFFSET -2.150 0.000 0.000
              CHANNELS 6 Xposition Yposition Zposition Zrotation Xrotation Yrotation
                JOINT RightHandThumb3
                {
                OFFSET -2.200 0.000 0.000
                CHANNELS 6 Xposition Yposition Zposition Zrotation Xrotation Yrotation
                  JOINT RightHandThumb4
                  {
                  OFFSET -1.700 0.000 0.000
                  CHANNELS 6 Xposition Yposition Zposition Zrotation Xrotation Yrotation
                  }
                }
              }
            }
            JOINT RightHandIndex1
            {
            OFFSET -8.730 0.680 2.070
            CHANNELS 6 Xposition Yposition Zposition Zrotation Xrotation Yrotation
              JOINT RightHandIndex2
              {
              OFFSET -2.670 0.000 0.000
              CHANNELS 6 Xposition Yposition Zposition Zrotation Xrotation Yrotation
                JOINT RightHandIndex3
                {
                OFFSET -2.130 0.000 0.000
                CHANNELS 6 Xposition Yposition Zposition Zrotation Xrotation Yrotation
                  JOINT RightHandIndex4
                  {
                  OFFSET -1.800 0.000 0.000
                  CHANNELS 6 Xposition Yposition Zposition Zrotation Xrotation Yrotation
                  }
                }
              }
            }
            JOINT RightHandMiddle1
            {
            OFFSET -9.220 0.670 0.550
            CHANNELS 6 Xposition Yposition Zposition Zrotation Xrotation Yrotation
              JOINT RightHandMiddle2
              {
              OFFSET -2.660 0.000 0.000
              CHANNELS 6 Xposition Yposition Zposition Zrotation Xrotation Yrotation
                JOINT RightHandMiddle3
                {
                OFFSET -2.280 0.000 0.000
                CHANNELS 6 Xposition Yposition Zposition Zrotation Xrotation Yrotation
                  JOINT RightHandMiddle4
                  {
                  OFFSET -1.500 0.000 0.000
                  CHANNELS 6 Xposition Yposition Zposition Zrotation Xrotation Yrotation
                  }
                }
              }
            }
            JOINT RightHandRing1
            {
            OFFSET -9.250 0.670 -1.130
            CHANNELS 6 Xposition Yposition Zposition Zrotation Xrotation Yrotation
              JOINT RightHandRing2
              {
              OFFSET -2.470 0.000 0.000
              CHANNELS 6 Xposition Yposition Zposition Zrotation Xrotation Yrotation
                JOINT RightHandRing3
                {
                OFFSET -2.210 0.000 0.000
                CHANNELS 6 Xposition Yposition Zposition Zrotation Xrotation Yrotation
                  JOINT RightHandRing4
                  {
                  OFFSET -1.800 0.000 0.000
                  CHANNELS 6 Xposition Yposition Zposition Zrotation Xrotation Yrotation
                  }
                }
              }
            }
            JOINT RightHandPinky1
            {
            OFFSET -9.350 0.660 -2.720
            CHANNELS 6 Xposition Yposition Zposition Zrotation Xrotation Yrotation
              JOINT RightHandPinky2
              {
              OFFSET -1.630 0.000 0.000
              CHANNELS 6 Xposition Yposition Zposition Zrotation Xrotation Yrotation
                JOINT RightHandPinky3
                {
                OFFSET -1.710 0.000 0.000
                CHANNELS 6 Xposition Yposition Zposition Zrotation Xrotation Yrotation
                  JOINT RightHandPinky4
                  {
                  OFFSET -1.800 0.000 0.000
                  CHANNELS 6 Xposition Yposition Zposition Zrotation Xrotation Yrotation
                  }
                }
              }
            }
          }
        }
      }
    }
    JOINT Neck
    {
      OFFSET -0.000 32.599 0.000
      CHANNELS 6 Xposition Yposition Zposition Zrotation Xrotation Yrotation
      JOINT Head
      {
        OFFSET -0.000 23.090 -0.000
        CHANNELS 6 Xposition Yposition Zposition Zrotation Xrotation Yrotation
        End Site
        {
          OFFSET -0.000 0.092 -0.000
        }
      }
    }
  }
}
MOTION
Frames:	6
Frame Time:	0.0333333
-36.3063 30.7145 -275.762 -0.319249 1.48895 1.0642 7.61067 -7.63119 1.82002 0.699876 2.29187 -0.304552 1.93715e-05 -53.9367 4.76837e-05 -3.43971 1.60477 0.0964446 -7.45058e-06 -37.3144 0 3.44976 -11.6991 2.68738 -7.57777 -7.27745 1.76084 -1.11892 2.67538 -0.233021 2.98023e-06 -53.6699 7.15256e-05 1.76598 1.75726 -0.0541712 0 -38.8882 -2.38419e-05 -8.83655 -11.6183 -6.82449 -1.19209e-05 6.53974 -6.53977 0.145417 -4.21274 -0.180732 -2.98023e-06 32.5994 9.53674e-05 -14.4494 1.15259e-05 -6.94933 19.1394 -2.98023e-05 -4.76837e-05 2.62359 -59.1472 6.31648 28.1869 2.38419e-05 0 -4.24618e-06 -3.4151e-06 -51.1912 31.0801 2.38419e-05 5.96046e-06 2.57193 -0.0659051 -7.49786 0.0062 0.0497 0.0339 0 0 0 0 0.0215 0 0 0 0 0 0.022 0 0 0 0 0 0.017 0 0 0 0 -0.0068 0.0873 0.0207 0 0 0 0 0.0267 0 0 0 0 0 0.0213 0 0 0 0 0 0.018 0 0 0 0 -0.0067 0.0922 0.0055 0 0 0 0 0.0266 0 0 0 0 0 0.0228 0 0 0 0 0 0.015 0 0 0 0 -0.0067 0.0925 -0.0113 0 0 0 0 0.0247 0 0 0 0 0 0.0221 0 0 0 0 0 0.018 0 0 0 0 -0.0066 0.0935 -0.0272 0 0 0 0 0.0163 0 0 0 0 0 0.0171 0 0 0 0 0 0.018 0 0 0 0 -2.98023e-06 32.5994 9.53674e-05 16.0428 -1.70755e-06 8.05477 -16.5266 0 -2.38419e-05 31.4475 14.226 17.0817 -28.1931 -2.2538e-05 -2.38419e-05 8.16525e-05 8.54261e-06 94.1539 -25.0377 9.49949e-06 0 0.892451 -0.0859806 11.9838 -0.0062 0.0497 0.0339 45 0 0 0 0.0215 0 0 -45 0 0 0.022 0 0 -45 0 0 0.017 0 0 0 0 0.0068 0.0873 0.0207 45 0 0 0 0.0267 0 80 0 0 0 0.0213 0 90 0 0 0 0.018 0 0 0 0 0.0067 0.0922 0.0055 45 0 0 0 0.0266 0 80 0 0 0 0.0228 0 90 0 0 0 0.015 0 0 0 0 0.0067 0.0925 -0.0113 45 0 0 0 0.0247 0 80 0 0 0 0.0221 0 90 0 0 0 0.018 0 0 0 0 0.0066 0.0935 -0.0272 45 0 0 0 0.0163 0 80 0 0 0 0.0171 0 90 0 0 0 0.018 0 0 0 0 -2.98023e-06 32.5994 9.53674e-05 -1.33883 1.20578 0.0281785 1.19209e-05 26.0217 -4.76837e-05 9.86509e-06 -9.71168e-06 -5.33609e-08 
-36.3063 30.7145 -275.762 -0.319249 1.48895 1.0642 7.61067 -7.63119 1.82002 0.699876 2.29187 -0.304552 1.93715e-05 -53.9367 4.76837e-05 -3.43971 1.60477 0.0964446 -7.45058e-06 -37.3144 0 3.44976 -11.6991 2.68738 -7.57777 -7.27745 1.76084 -1.11892 2.67538 -0.233021 2.98023e-06 -53.6699 7.15256e-05 1.76598 1.75726 -0.0541712 0 -38.8882 -2.38419e-05 -8.83655 -11.6183 -6.82449 -1.19209e-05 6.53974 -6.53977 0.145417 -4.21274 -0.180732 -2.98023e-06 32.5994 9.53674e-05 -14.4494 1.15259e-05 -6.94933 19.1394 -2.98023e-05 -4.76837e-05 2.62359 -59.1472 6.31648 28.1869 2.38419e-05 0 -4.24618e-06 -3.4151e-06 -51.1912 31.0801 2.38419e-05 5.96046e-06 2.57193 -0.0659051 -7.49786 0.0062 0.0497 0.0339 0 0 0 0 0.0215 0 0 0 0 0 0.022 0 0 0 0 0 0.017 0 0 0 0 -0.0068 0.0873 0.0207 0 0 0 0 0.0267 0 0 0 0 0 0.0213 0 0 0 0 0 0.018 0 0 0 0 -0.0067 0.0922 0.0055 0 0 0 0 0.0266 0 0 0 0 0 0.0228 0 0 0 0 0 0.015 0 0 0 0 -0.0067 0.0925 -0.0113 0 0 0 0 0.0247 0 0 0 0 0 0.0221 0 0 0 0 0 0.018 0 0 0 0 -0.0066 0.0935 -0.0272 0 0 0 0 0.0163 0 0 0 0 0 0.0171 0 0 0 0 0 0.018 0 0 0 0 -2.98023e-06 32.5994 9.53674e-05 16.0428 -1.70755e-06 8.05477 -16.5266 0 -2.38419e-05 31.4475 14.226 17.0817 -28.1931 -2.2538e-05 -2.38419e-05 8.16525e-05 8.54261e-06 94.1539 -25.0377 9.49949e-06 0 0.892451 -0.0859806 11.9838 -0.0062 0.0497 0.0339 45 0 0 0 0.0215 0 0 -45 0 0 0.022 0 0 -45 0 0 0.017 0 0 0 0 0.0068 0.0873 0.0207 45 0 0 0 0.0267 0 80 0 0 0 0.0213 0 90 0 0 0 0.018 0 0 0 0 0.0067 0.0922 0.0055 45 0 0 0 0.0266 0 80 0 0 0 0.0228 0 90 0 0 0 0.015 0 0 0 0 0.0067 0.0925 -0.0113 45 0 0 0 0.0247 0 80 0 0 0 0.0221 0 90 0 0 0 0.018 0 0 0 0 0.0066 0.0935 -0.0272 45 0 0 0 0.0163 0 80 0 0 0 0.0171 0 90 0 0 0 0.018 0 0 0 0 -2.98023e-06 32.5994 9.53674e-05 -1.33883 1.20578 0.0281785 1.19209e-05 26.0217 -4.76837e-05 9.86509e-06 -9.71168e-06 -5.33609e-08 
-36.3427 30.7315 -275.483 -0.331798 1.27941 1.67957 7.6169 -7.6409 1.81665 0.746583 2.60359 -0.29683 -4.47035e-06 -53.9149 7.15256e-05 -3.36756 1.66665 0.0980566 4.47035e-06 -37.3439 -2.38419e-05 2.77733 -11.3167 2.16362 -7.55838 -7.26111 1.7643 -1.06204 3.07852 -0.217482 8.9407e-06 -53.663 0 1.75838 1.91964 -0.0589203 -2.98023e-06 -38.9422 2.38419e-05 -9.01148 -11.5948 -6.96083 0 6.54962 -6.54964 0.357266 -4.22494 -0.441888 5.96046e-06 32.5995 0 -14.3743 1.19528e-05 -6.87707 19.3371 5.96046e-06 0 3.48228 -59.9579 7.06292 28.2082 -2.38419e-05 -5.96046e-06 -5.97443e-06 -6.83019e-06 -52.0226 31.2211 0 5.96046e-06 4.08786 -0.0834753 -6.65741 0.0062 0.0497 0.0339 0 0 0 0 0.0215 0 0 0 0 0 0.022 0 0 0 0 0 0.017 0 0 0 0 -0.0068 0.0873 0.0207 0 0 0 0 0.0267 0 0 0 0 0 0.0213 0 0 0 0 0 0.018 0 0 0 0 -0.0067 0.0922 0.0055 0 0 0 0 0.0266 0 0 0 0 0 0.0228 0 0 0 0 0 0.015 0 0 0 0 -0.0067 0.0925 -0.0113 0 0 0 0 0.0247 0 0 0 0 0 0.0221 0 0 0 0 0 0.018 0 0 0 0 -0.0066 0.0935 -0.0272 0 0 0 0 0.0163 0 0 0 0 0 0.0171 0 0 0 0 0 0.018 0 0 0 0 5.96046e-06 32.5995 0 15.2378 -1.4941e-06 8.18592 -16.2615 0 0 31.0843 15.7249 18.3547 -29.2048 1.63913e-05 -4.76837e-05 4.01526e-05 1.39547e-05 96.7955 -25.121 3.72529e-06 1.19209e-05 0.705926 -0.0498224 9.78268 -0.0062 0.0497 0.0339 45 0 0 0 0.0215 0 0 -45 0 0 0.022 0 0 -45 0 0 0.017 0 0 0 0 0.0068 0.0873 0.0207 45 0 0 0 0.0267 0 80 0 0 0 0.0213 0 90 0 0 0 0.018 0 0 0 0 0.0067 0.0922 0.0055 45 0 0 0 0.0266 0 80 0 0 0 0.0228 0 90 0 0 0 0.015 0 0 0 0 0.0067 0.0925 -0.0113 45 0 0 0 0.0247 0 80 0 0 0 0.0221 0 90 0 0 0 0.018 0 0 0 0 0.0066 0.0935 -0.0272 45 0 0 0 0.0163 0 80 0 0 0 0.0171 0 90 0 0 0 0.018 0 0 0 0 5.96046e-06 32.5995 0 -1.51545 1.11062 0.0293802 0 26.0548 0 9.89844e-06 -9.39151e-06 0 
-36.3427 30.7315 -275.483 -0.331798 1.27941 1.67957 7.6169 -7.6409 1.81665 0.746583 2.60359 -0.29683 -4.47035e-06 -53.9149 7.15256e-05 -3.36756 1.66665 0.0980566 4.47035e-06 -37.3439 -2.38419e-05 2.77733 -11.3167 2.16362 -7.55838 -7.26111 1.7643 -1.06204 3.07852 -0.217482 8.9407e-06 -53.663 0 1.75838 1.91964 -0.0589203 -2.98023e-06 -38.9422 2.38419e-05 -9.01148 -11.5948 -6.96083 0 6.54962 -6.54964 0.357266 -4.22494 -0.441888 5.96046e-06 32.5995 0 -14.3743 1.19528e-05 -6.87707 19.3371 5.96046e-06 0 3.48228 -59.9579 7.06292 28.2082 -2.38419e-05 -5.96046e-06 -5.97443e-06 -6.83019e-06 -52.0226 31.2211 0 5.96046e-06 4.08786 -0.0834753 -6.65741 0.0062 0.0497 0.0339 0 0 0 0 0.0215 0 0 0 0 0 0.022 0 0 0 0 0 0.017 0 0 0 0 -0.0068 0.0873 0.0207 0 0 0 0 0.0267 0 0 0 0 0 0.0213 0 0 0 0 0 0.018 0 0 0 0 -0.0067 0.0922 0.0055 0 0 0 0 0.0266 0 0 0 0 0 0.0228 0 0 0 0 0 0.015 0 0 0 0 -0.0067 0.0925 -0.0113 0 0 0 0 0.0247 0 0 0 0 0 0.0221 0 0 0 0 0 0.018 0 0 0 0 -0.0066 0.0935 -0.0272 0 0 0 0 0.0163 0 0 0 0 0 0.0171 0 0 0 0 0 0.018 0 0 0 0 5.96046e-06 32.5995 0 15.2378 -1.4941e-06 8.18592 -16.2615 0 0 31.0843 15.7249 18.3547 -29.2048 1.63913e-05 -4.76837e-05 4.01526e-05 1.39547e-05 96.7955 -25.121 3.72529e-06 1.19209e-05 0.705926 -0.0498224 9.78268 -0.0062 0.0497 0.0339 45 0 0 0 0.0215 0 0 -45 0 0 0.022 0 0 -45 0 0 0.017 0 0 0 0 0.0068 0.0873 0.0207 45 0 0 0 0.0267 0 80 0 0 0 0.0213 0 90 0 0 0 0.018 0 0 0 0 0.0067 0.0922 0.0055 45 0 0 0 0.0266 0 80 0 0 0 0.0228 0 90 0 0 0 0.015 0 0 0 0 0.0067 0.0925 -0.0113 45 0 0 0 0.0247 0 80 0 0 0 0.0221 0 90 0 0 0 0.018 0 0 0 0 0.0066 0.0935 -0.0272 45 0 0 0 0.0163 0 80 0 0 0 0.0171 0 90 0 0 0 0.018 0 0 0 0 5.96046e-06 32.5995 0 -1.51545 1.11062 0.0293802 0 26.0548 0 9.89844e-06 -9.39151e-06 0 
-36.3513 30.7327 -275.375 -0.321595 1.21572 1.88269 7.61665 -7.64302 1.81386 0.747537 2.715 -0.298265 -1.49012e-06 -53.9062 4.76837e-05 -3.32634 1.68174 0.0977301 8.9407e-06 -37.3491 -2.38419e-05 2.56704 -11.1849 1.99742 -7.55206 -7.25194 1.76277 -1.0581 3.21669 -0.21612 -2.98023e-06 -53.6639 2.38419e-05 1.74969 1.97643 -0.0603635 -2.98023e-06 -38.9226 0 -9.07981 -11.6159 -7.0184 8.9407e-06 6.55354 -6.55358 0.405349 -4.24043 -0.514294 -2.98023e-06 32.5994 2.38419e-05 -14.3268 1.06722e-05 -6.84799 19.393 5.96046e-06 -2.38419e-05 3.54662 -60.4946 6.73211 28.2858 0 5.96046e-06 1.69408e-05 6.83019e-06 -51.7547 31.2677 -2.38419e-05 2.98023e-06 5.89579 -0.0580824 -3.91012 0.0062 0.0497 0.0339 0 0 0 0 0.0215 0 0 0 0 0 0.022 0 0 0 0 0 0.017 0 0 0 0 -0.0068 0.0873 0.0207 0 0 0 0 0.0267 0 0 0 0 0 0.0213 0 0 0 0 0 0.018 0 0 0 0 -0.0067 0.0922 0.0055 0 0 0 0 0.0266 0 0 0 0 0 0.0228 0 0 0 0 0 0.015 0 0 0 0 -0.0067 0.0925 -0.0113 0 0 0 0 0.0247 0 0 0 0 0 0.0221 0 0 0 0 0 0.018 0 0 0 0 -0.0066 0.0935 -0.0272 0 0 0 0 0.0163 0 0 0 0 0 0.0171 0 0 0 0 0 0.018 0 0 0 0 -2.98023e-06 32.5994 2.38419e-05 15.0214 -1.28066e-06 8.22138 -16.1704 5.96046e-06 0 30.9733 16.0769 18.6152 -29.5202 -2.23517e-06 2.38419e-05 7.18684e-05 1.14367e-06 97.5965 -25.1245 -8.19564e-06 0 0.907665 -0.0365852 9.44589 -0.0062 0.0497 0.0339 45 0 0 0 0.0215 0 0 -45 0 0 0.022 0 0 -45 0 0 0.017 0 0 0 0 0.0068 0.0873 0.0207 45 0 0 0 0.0267 0 80 0 0 0 0.0213 0 90 0 0 0 0.018 0 0 0 0 0.0067 0.0922 0.0055 45 0 0 0 0.0266 0 80 0 0 0 0.0228 0 90 0 0 0 0.015 0 0 0 0 0.0067 0.0925 -0.0113 45 0 0 0 0.0247 0 80 0 0 0 0.0221 0 90 0 0 0 0.018 0 0 0 0 0.0066 0.0935 -0.0272 45 0 0 0 0.0163 0 80 0 0 0 0.0171 0 90 0 0 0 0.018 0 0 0 0 -2.98023e-06 32.5994 2.38419e-05 -1.53806 1.14668 0.0307873 -2.98023e-06 26.0621 0 9.84508e-06 -1.02453e-05 2.13443e-07 
-36.369 30.7482 -275.165 -0.282687 1.14078 2.27582 7.61863 -7.65185 1.82476 0.726016 2.89975 -0.399738 -1.3411e-05 -53.9138 2.38419e-05 -3.3872 1.57462 0.0931856 4.47035e-06 -37.4802 -2.38419e-05 2.45901 -10.9974 1.89667 -7.54195 -7.2369 1.74963 -1.06282 3.406 -0.313288 1.19209e-05 -53.6509 4.76837e-05 1.7503 2.0472 -0.0625446 -2.98023e-06 -39.0086 -4.76837e-05 -9.21992 -11.5963 -7.12682 2.98023e-06 6.56057 -6.56059 0.531563 -4.26514 -0.665019 -8.9407e-06 32.5994 0 -14.3058 1.23797e-05 -6.67598 19.5302 -1.19209e-05 -2.38419e-05 3.45848 -61.1931 5.45605 28.1541 4.76837e-05 0 1.80092e-05 1.70755e-06 -50.0876 31.313 -4.76837e-05 -2.98023e-06 7.9985 0.0312577 -1.02867 0.0062 0.0497 0.0339 0 0 0 0 0.0215 0 0 0 0 0 0.022 0 0 0 0 0 0.017 0 0 0 0 -0.0068 0.0873 0.0207 0 0 0 0 0.0267 0 0 0 0 0 0.0213 0 0 0 0 0 0.018 0 0 0 0 -0.0067 0.0922 0.0055 0 0 0 0 0.0266 0 0 0 0 0 0.0228 0 0 0 0 0 0.015 0 0 0 0 -0.0067 0.0925 -0.0113 0 0 0 0 0.0247 0 0 0 0 0 0.0221 0 0 0 0 0 0.018 0 0 0 0 -0.0066 0.0935 -0.0272 0 0 0 0 0.0163 0 0 0 0 0 0.0171 0 0 0 0 0 0.018 0 0 0 0 -8.9407e-06 32.5994 0 14.6152 -6.4033e-07 8.16943 -15.9778 -5.96046e-06 4.76837e-05 30.7382 16.6122 19.0283 -30.0391 -1.04308e-05 7.15256e-05 3.97016e-05 1.62851e-05 98.985 -25.1175 3.12924e-05 2.38419e-05 1.95104 -0.00106998 9.38624 -0.0062 0.0497 0.0339 45 0 0 0 0.0215 0 0 -45 0 0 0.022 0 0 -45 0 0 0.017 0 0 0 0 0.0068 0.0873 0.0207 45 0 0 0 0.0267 0 80 0 0 0 0.0213 0 90 0 0 0 0.018 0 0 0 0 0.0067 0.0922 0.0055 45 0 0 0 0.0266 0 80 0 0 0 0.0228 0 90 0 0 0 0.015 0 0 0 0 0.0067 0.0925 -0.0113 45 0 0 0 0.0247 0 80 0 0 0 0.0221 0 90 0 0 0 0.018 0 0 0 0 0.0066 0.0935 -0.0272 45 0 0 0 0.0163 0 80 0 0 0 0.0171 0 90 0 0 0 0.018 0 0 0 0 -8.9407e-06 32.5994 0 -1.79167 1.10923 0.0346959 2.98023e-06 26.0549 4.76837e-05 1.02853e-05 -1.10991e-05 -2.13443e-07 
